<?xml version="1.0" encoding="UTF-8" standalone="no"?>
<svg
   xmlns:dc="http://purl.org/dc/elements/1.1/"
   xmlns:cc="http://creativecommons.org/ns#"
   xmlns:rdf="http://www.w3.org/1999/02/22-rdf-syntax-ns#"
   xmlns:svg="http://www.w3.org/2000/svg"
   xmlns="http://www.w3.org/2000/svg"
   xmlns:sodipodi="http://sodipodi.sourceforge.net/DTD/sodipodi-0.dtd"
   xmlns:inkscape="http://www.inkscape.org/namespaces/inkscape"
   height="480"
   width="925"
   viewBox="-58.46985 -50.32625 390.61108 181.1745"
   version="1.1"
   id="svg12"
   sodipodi:docname="MySQLIcon.svg"
   inkscape:version="1.0.1 (3bc2e813f5, 2020-09-07)">
  <metadata
     id="metadata18">
    <rdf:RDF>
      <cc:Work
         rdf:about="">
        <dc:format>image/svg+xml</dc:format>
        <dc:type
           rdf:resource="http://purl.org/dc/dcmitype/StillImage" />
        <dc:title></dc:title>
      </cc:Work>
    </rdf:RDF>
  </metadata>
  <defs
     id="defs16" />
  <sodipodi:namedview
     pagecolor="#ffffff"
     bordercolor="#666666"
     borderopacity="1"
     objecttolerance="10"
     gridtolerance="10"
     guidetolerance="10"
     inkscape:pageopacity="0"
     inkscape:pageshadow="2"
     inkscape:window-width="1881"
     inkscape:window-height="991"
     id="namedview14"
     showgrid="false"
     inkscape:zoom="0.47671986"
     inkscape:cx="423.939"
     inkscape:cy="179.41615"
     inkscape:window-x="0"
     inkscape:window-y="0"
     inkscape:window-maximized="0"
     inkscape:current-layer="svg12" />
  <path
     d="m -58.061602,122.1606 h 12.842 V 71.449595 l 19.88,44.208005 c 2.346,5.35 5.557,7.244 11.854,7.244 6.2979991,0 9.3849991,-1.893 11.7319991,-7.244 L 18.126398,71.449595 V 122.1596 h 12.842 V 71.532595 c 0,-4.94 -1.976,-7.327 -6.05,-8.561 -9.755,-3.046 -16.300001,-0.412 -19.2640009,6.174 l -19.5099991,43.630005 -18.892,-43.630005 c -2.84,-6.586 -9.508,-9.22 -19.263,-6.174 -4.075,1.234 -6.051,3.622 -6.051,8.56 z m 99.708,-41.276005 h 12.838 V 108.8226 c -0.12,1.518 0.487,5.08 7.522,5.19 3.589,0.057 27.7,0 27.925,0 V 80.748595 h 12.868012 c 0.059,0 -0.013,45.364005 -0.012,45.557005 0.07,11.188 -13.882012,13.618 -20.313012,13.806 h -40.55 v -8.64 c 0.072,0 40.52,0.009 40.622,-0.001 8.265,-0.873 7.289,-4.981 7.288,-6.364 v -3.368 h -27.296 c -12.7,-0.117 -20.786,-5.66 -20.886,-12.035 -0.01,-0.591 0.274,-28.540005 -0.007,-28.820005 z"
     fill="#00618a"
     id="path2" />
  <path
     d="m 112.69641,122.1606 h 36.92 c 4.322,0 8.52,-0.905 11.855,-2.47 5.556,-2.551 8.273,-6.008 8.273,-10.537 v -9.384004 c 0,-3.705001 -3.087,-7.163001 -9.138,-9.467001 -3.211,-1.236 -7.162,-1.894 -10.99,-1.894 h -15.56 c -5.184,0 -7.654,-1.564 -8.271,-5.021 -0.124,-0.412 -0.124,-0.742 -0.124,-1.153 v -5.844 c 0,-0.33 0,-0.66 0.124,-1.071 0.617,-2.634 1.976,-3.376 6.544,-3.787 0.37,0 0.864,-0.083 1.235,-0.083 h 36.674 v -8.56 h -36.057 c -5.186,0 -7.903,0.329 -10.372,1.069 -7.656,2.388 -10.99,6.175 -10.99,12.76 v 7.492 c 0,5.763 6.545,10.702 17.534,11.854 1.236,0.082 2.47,0.164 3.704,0.164 h 13.336 c 0.495,0 0.989,0 1.359,0.083 4.075,0.33 5.803,1.07 7.039,2.551997 0.74,0.740004 0.987,1.482008 0.987,2.305008 v 7.49 c 0,0.907 -0.617,2.06 -1.851,3.047 -1.112,0.988 -2.964,1.647 -5.434,1.812 -0.494,0 -0.864,0.082 -1.358,0.082 h -35.44 v 8.56 z m 137.16,-14.9 c 0,8.808 6.544,13.748 19.757,14.736 1.234,0.082 2.47,0.164 3.704,0.164 h 33.464 v -8.561 h -33.711 c -7.532,0 -10.372,-1.894 -10.372,-6.421 V 62.888595 h -12.842 z m -71.916,0.449 V 77.186595 c 0,-7.754 5.445,-12.457 16.209,-13.942 a 24.63,24.63 0 0 1 3.465,-0.247 h 24.376 c 1.237,0 2.352,0.083 3.589,0.247 10.765,1.485 16.209,6.188 16.209,13.942 V 107.7086 c 0,6.29 -2.312,9.658 -7.641,11.852 l 12.65,11.418 h -14.911 l -10.234,-9.238 -10.303,0.653 h -13.735 c -2.351,0 -4.825,-0.331 -7.548,-1.073 -8.166,-2.227 -12.126,-6.517 -12.126,-13.612 z m 13.86,-0.742 c 0,0.413 0.124,0.825 0.248,1.32 0.742,3.547 4.083,5.527 9.156,5.527 h 11.667 l -10.717,-9.675 h 14.91 l 9.348,8.438 c 1.722,-0.918 2.856,-2.322 3.252,-4.125 0.123,-0.412 0.123,-0.825 0.123,-1.237 V 77.930595 c 0,-0.33 0,-0.743 -0.123,-1.156 -0.743,-3.3 -4.084,-5.196 -9.033,-5.196 h -19.427 c -5.691,0 -9.403,2.475 -9.403,6.352 V 106.9676 Z"
     fill="#e48e00"
     id="path4" />
  <path
     d="m 318.07841,48.686595 c -7.893,-0.214 -13.923,0.52 -19.078,2.694 -1.465,0.618 -3.801,0.634 -4.04,2.47 0.805,0.844 0.93,2.104 1.57,3.142 1.23,1.992 3.309,4.661 5.163,6.061 2.026,1.53 4.114,3.165 6.286,4.49 3.863,2.355 8.176,3.7 11.896,6.06 2.192,1.391 4.37,3.143 6.509,4.713 1.057,0.776 1.768,1.983 3.142,2.47 v -0.225 c -0.722,-0.919 -0.908,-2.183 -1.571,-3.143 l -2.918,-2.918 c -2.853,-3.787 -6.475,-7.113 -10.325,-9.876 -3.07,-2.204 -9.942,-5.18 -11.223,-8.754 l -0.225,-0.225 c 2.177,-0.245 4.726,-1.033 6.735,-1.57 3.375,-0.906 6.39,-0.672 9.876,-1.572 1.57,-0.449 3.142,-0.899 4.714,-1.347 v -0.898 c -1.762,-1.808 -3.018,-4.2 -4.94,-5.836 -5.025,-4.28 -10.511,-8.556001 -16.16,-12.121001 -3.133,-1.978 -7.005,-3.263 -10.325,-4.939 -1.117,-0.563 -3.08,-0.856 -3.817,-1.796 -1.744,-2.223 -2.694,-5.042 -4.04,-7.632 -2.817,-5.425 -5.584,-11.3510009 -8.08,-17.06000089 -1.703,-3.89200001 -2.815,-7.73000001 -4.938,-11.22300011 -10.192,-16.756999 -21.163,-26.869999 -38.158,-36.811999 -3.616,-2.114 -7.97,-2.95 -12.571,-4.04 l -7.407,-0.45 c -1.507,-0.63 -3.075,-2.473 -4.49,-3.367 -5.63,-3.556 -20.07,-11.293 -24.24,-1.122 -2.633,6.42 3.935,12.685 6.284,15.938 1.649,2.282 3.76,4.84 4.938,7.407 0.775,1.687 0.909,3.378 1.572,5.163 1.632,4.397 3.05,9.18 5.162,13.243 1.067,2.056 2.243,4.221999 3.592,6.0599991 0.827,1.129 2.244,1.626 2.468,3.368 -1.386,1.94 -1.465,4.95000002 -2.244,7.407 -3.508,11.0620009 -2.185,24.8100009 2.918,32.9970009 1.566,2.513 5.254,7.903001 10.325,5.836001 4.436,-1.807 3.445,-7.406001 4.714,-12.345001 0.287,-1.12 0.11,-1.944 0.673,-2.694 v 0.225 l 4.04,8.08 c 2.99,4.815 8.298,9.848001 12.795,13.244001 2.332,1.761 4.168,4.806 7.183,5.836 v -0.225 h -0.225 c -0.584,-0.91 -1.498,-1.288 -2.244,-2.02 -1.757,-1.722 -3.71,-3.863 -5.163,-5.836 -4.09,-5.553 -7.705,-11.630001 -10.998,-17.957001 -1.573,-3.02 -2.94,-6.354 -4.266,-9.428 -0.511,-1.185 -0.505,-2.977 -1.57,-3.592 -1.452,2.253 -3.591,4.075 -4.714,6.735 -1.796,4.252 -2.028,9.437 -2.693,14.814 -0.394,0.141 -0.22,0.044 -0.45,0.224 -3.126,-0.754 -4.225,-3.972 -5.386,-6.733 -2.94,-6.982 -3.485,-18.225 -0.9,-26.2620009 0.67,-2.08 3.694,-8.63 2.47,-10.55 -0.584,-1.917 -2.512,-3.0260001 -3.591,-4.4899991 -1.335,-1.811 -2.668,-4.195 -3.592,-6.286 -2.405,-5.444 -3.528,-11.555 -6.06,-17.058 -1.21,-2.631 -3.257,-5.293 -4.938,-7.632 -1.861,-2.59 -3.945,-4.5 -5.387,-7.633 -0.513,-1.113 -1.21,-2.895 -0.45,-4.04 0.243,-0.772 0.584,-1.095 1.348,-1.347 1.302,-1.003 4.928,0.334 6.284,0.898 3.6,1.495 6.604,2.919 9.653,4.938 1.464,0.971 2.944,2.848 4.713,3.368 h 2.02 c 3.16,0.726 6.7,0.225 9.652,1.122 5.218,1.586 9.894,4.052 14.14,6.734 12.939,8.169 23.517,19.798 30.753,33.6699991 1.164,2.233 1.668,4.36499999 2.693,6.734 2.069,4.778 4.675,9.6940009 6.733,14.3660009 2.054,4.66 4.056,9.365 6.959,13.244 1.527,2.039 7.422,3.133 10.1,4.264 1.879,0.794 4.956,1.621 6.735,2.693 3.398,2.05 6.69,4.490001 9.877,6.735001 1.593,1.122 6.489,3.583 6.733,5.611 z"
     fill="#00618a"
     id="path6" />
  <path
     d="m 217.74541,-36.834406 c -1.646,-0.03 -2.81,0.18 -4.041,0.448 v 0.225 h 0.225 c 0.785,1.613 2.17,2.651 3.142,4.04 a 6815.3,6815.3 0 0 0 2.245,4.714 l 0.224,-0.224 c 1.39,-0.98 2.027,-2.547 2.02,-4.938 -0.557,-0.586 -0.64,-1.322 -1.122,-2.021 -0.642,-0.932 -1.884,-1.46 -2.693,-2.244 z"
     fill="#00618a"
     fill-rule="evenodd"
     id="path8" />
  <path
     d="m 312.80841,113.3556 c 0,5.654 4.468,9.464 9.465,9.464 4.997,0 9.464,-3.81 9.464,-9.464 0,-5.653 -4.467,-9.463 -9.464,-9.463 -4.997,0 -9.464,3.81 -9.464,9.463 z m 16.809,0 c 0,4.29 -3.28,7.496 -7.344,7.496 -4.113,0 -7.344,-3.206 -7.344,-7.496 0,-4.29 3.23,-7.496 7.344,-7.496 4.064,0 7.344,3.206 7.344,7.496 z m -4.794,5.4 h 2.119 l -3.103,-4.743 c 1.665,-0.177 2.926,-0.985 2.926,-2.953 0,-2.196 -1.387,-3.104 -4.062,-3.104 h -4.215 v 10.8 h 1.817 v -4.668 h 1.69 l 2.828,4.669 z m -4.518,-6.182 v -3.104 h 2.094 c 1.086,0 2.398,0.202 2.398,1.464 0,1.513 -1.186,1.64 -2.55,1.64 z"
     fill="#e48e00"
     fill-rule="evenodd"
     id="path10" />
</svg>
